# xmcd
#
# Track frame offsets:
#	150
#	112894
#	128821
#	148006
#	161254
#	175256
#	193521
#	203779
#	220379
#	234684
#	250956
#
# Disc length: 3617 seconds
#
# Revision: 1
# Processed by: cddbd v1.5.2PL0 Copyright (c) Steve Scherf et al.
# Submitted via: audiograbber 1.83.01
#
DISCID=9c0e1f0b
DTITLE=Chip Taylor - Gasoline
DYEAR=1071
DGENRE=
TTITLE0=Data Track
TTITLE1=Londonderry Company
TTITLE2=Angel Of The Morning
TTITLE3=Home Again
TTITLE4=Lady Lisa
TTITLE5=Oh My Marie
TTITLE6=Gasoline
TTITLE7=Lightning (Don't Stay Mad With Me)
TTITLE8=Dirty Matthew
TTITLE9=You Didn't Get Here Last Night
TTITLE10=Your Honor
EXTD=
EXTT0=
EXTT1=
EXTT2=
EXTT3=
EXTT4=
EXTT5=
EXTT6=
EXTT7=
EXTT8=
EXTT9=
EXTT10=
PLAYORDER=
